<?xml version="1.0" encoding="UTF-8"?>
<!DOCTYPE svg PUBLIC "-//W3C//DTD SVG 1.1//EN" "http://www.w3.org/Graphics/SVG/1.1/DTD/svg11.dtd">
<!-- Creator: CorelDRAW -->
<svg xmlns="http://www.w3.org/2000/svg" xml:space="preserve" width="148px" height="133px" version="1.1" style="shape-rendering:geometricPrecision; text-rendering:geometricPrecision; image-rendering:optimizeQuality; fill-rule:evenodd; clip-rule:evenodd"
viewBox="0 0 563800 504400"
 xmlns:xlink="http://www.w3.org/1999/xlink"
 xmlns:xodm="http://www.corel.com/coreldraw/odm/2003">
 <defs>
  <style type="text/css">
   <![CDATA[
    .fil5 {fill:#3DA683}
    .fil6 {fill:#43CB94}
    .fil3 {fill:#655E67}
    .fil2 {fill:#F0A70A}
    .fil0 {fill:#FED22B;fill-rule:nonzero}
    .fil1 {fill:#FED22B;fill-rule:nonzero}
    .fil7 {fill:white;fill-rule:nonzero}
    .fil4 {fill:url(#id0)}
   ]]>
  </style>
  <linearGradient id="id0" gradientUnits="objectBoundingBox" x1="55.5991%" y1="100.18%" x2="44.4009%" y2="0%">
   <stop offset="0" style="stop-opacity:1; stop-color:#544F56"/>
   <stop offset="1" style="stop-opacity:1; stop-color:#6F6C70"/>
  </linearGradient>
 </defs>
 <g id="Layer_x0020_1">
  <metadata id="CorelCorpID_0Corel-Layer"/>
  <g id="_1765684355600">
   <path class="fil0" d="M539700 177300c-2500,0 -5100,300 -7700,1000l-27400 7600 -29000 -70500c-8600,-21100 -34300,-38300 -57100,-38300l-19300 0 0 -58500c0,-10200 -8300,-18600 -18600,-18600l-197400 0c-10300,0 -18700,8400 -18700,18600l0 58500 -19600 0c-22900,0 -48500,17200 -57200,38300l-28900 70400 -27000 -7500c-2600,-700 -5200,-1000 -7800,-1000 -13900,0 -24000,10600 -24000,25300l0 15000c0,17100 13900,31000 31000,31000l2000 0 -4100 10100c-8100,19600 -14600,52800 -14600,74000l0 140700c0,17100 13900,31000 31000,31000l37400 0c17100,0 31000,-13900 31000,-31000l0 -34600 335900 0 0 34600c0,17100 14000,31000 31100,31000l37300 0c17100,0 31100,-13900 31100,-31000l0 -140700c0,-21200 -6600,-54400 -14700,-74000l-4100 -10100 2400 0c17100,0 31100,-13900 31100,-31000l0 -15000c0,-14700 -10200,-25300 -24100,-25300zm-183000 -152500c0,-400 300,-700 800,-700l14300 0c400,0 800,300 800,700l0 51700c0,200 -200,400 -400,600l-15200 0c-100,-200 -300,-400 -300,-600l0 -51700zm-102900 -700l17200 0c400,0 900,300 1000,700l20500 51400 18800 -23200c200,-300 300,-800 0,-1200l-18000 -27100c-200,-300 -100,-600 400,-600l15900 0c400,0 900,300 1100,600l9300 15100c200,300 600,300 800,0l9300 -15100c200,-300 700,-600 1100,-600l16000 0c400,0 500,300 300,600l-18000 27100c-200,400 -200,900 100,1200l19100 23700c100,100 100,300 100,400l-17000 0c-200,-100 -400,-300 -500,-500l-10500 -16800c-200,-300 -600,-300 -800,0l-10400 16800c-200,200 -400,400 -600,500l-31900 0c-200,-200 -400,-300 -500,-600l-3500 -10700c-100,-400 -600,-700 -1000,-700l-19500 0c-400,0 -900,300 -1000,700l-3800 10700c-100,300 -300,400 -500,600l-15300 0c-200,-200 -200,-300 -100,-500l20900 -51800c100,-400 600,-700 1000,-700zm-50500 52400l0 -41000c0,-400 -300,-800 -700,-800l-17300 0c-400,0 -700,-300 -700,-700l0 -9200c0,-400 300,-700 700,-700l51900 0c500,0 800,300 800,700l0 9200c0,400 -300,700 -800,700l-17300 0c-400,0 -700,400 -700,800l0 41000c0,200 -200,400 -400,600l-15200 0c-200,-200 -300,-400 -300,-600zm-122500 154800l43900 -107100c5200,-12700 20700,-23000 34300,-23000l245300 0c13700,0 29100,10300 34300,23000l44000 107100c5200,12600 -1700,23000 -15400,23000l-371000 0c-13700,0 -20600,-10400 -15400,-23000zm99300 138000c0,6800 -5600,12400 -12400,12400l-84000 0c-6800,0 -12400,-5600 -12400,-12400l0 -39900c0,-6800 5600,-12400 12400,-12400l84000 0c6800,0 12400,5600 12400,12400l0 39900zm311100 0c0,6800 -5600,12400 -12400,12400l-83900 0c-6900,0 -12500,-5600 -12500,-12400l0 -39900c0,-6800 5600,-12400 12500,-12400l83900 0c6800,0 12400,5600 12400,12400l0 39900z"/>
   <path class="fil1" d="M268600 54400c500,0 700,-300 500,-600l-6200 -14300c-200,-400 -400,-400 -600,0l-6600 14300c-100,300 100,600 500,600l12400 0z"/>
   <path class="fil2" d="M7100 403100l549600 0c1100,0 1900,800 1900,1900l0 31900c0,1000 -800,1900 -1900,1900l-549600 0c-1100,0 -2000,-900 -2000,-1900l0 -31900c0,-1100 900,-1900 2000,-1900z"/>
   <path class="fil3" d="M210200 281200l143400 0c4400,0 8100,3600 8100,8100l0 0c0,4400 -3700,8100 -8100,8100l-143400 0c-4500,0 -8100,-3700 -8100,-8100l0 0c0,-4500 3600,-8100 8100,-8100z"/>
   <path class="fil3" d="M235300 326900l93200 0c4400,0 8000,3700 8000,8100l0 0c0,4500 -3600,8100 -8000,8100l-93200 0c-4500,0 -8100,-3600 -8100,-8100l0 0c0,-4400 3600,-8100 8100,-8100z"/>
   <path class="fil4" d="M449600 438800l99500 0 0 38600c0,14800 -12200,27000 -27100,27000l-45300 0c-14900,0 -27100,-12200 -27100,-27000l0 -38600z"/>
   <path class="fil4" d="M14300 438800l99400 0 0 38600c0,14800 -12200,27000 -27100,27000l-45200 0c-14900,0 -27100,-12200 -27100,-27000l0 -38600z"/>
   <path class="fil5" d="M182900 0l197900 0c10200,0 18400,8300 18400,18400l0 58700 -234700 0 0 -58700c0,-10100 8300,-18400 18400,-18400z"/>
   <path class="fil6" d="M203700 0l177100 0c10200,0 18400,8300 18400,18400l0 58700 -213900 0 0 -58700c0,-10100 8300,-18400 18400,-18400z"/>
   <path class="fil7" d="M258900 44900l0 -6100 15900 0 0 14500c-1500,1500 -3800,2900 -6700,4000 -2900,1200 -5900,1700 -8900,1700 -3800,0 -7100,-800 -10000,-2400 -2800,-1600 -5000,-3900 -6400,-6900 -1400,-3000 -2100,-6200 -2100,-9700 0,-3800 800,-7200 2400,-10200 1600,-3000 3900,-5200 7000,-6800 2300,-1200 5200,-1800 8700,-1800 4500,0 8100,900 10600,2800 2600,1900 4200,4600 5000,7900l-7400 1400c-500,-1800 -1500,-3200 -2900,-4300 -1400,-1000 -3200,-1500 -5300,-1500 -3200,0 -5800,1000 -7700,3100 -1900,2000 -2800,5000 -2800,9100 0,4300 900,7600 2900,9700 1900,2200 4400,3300 7500,3300 1600,0 3100,-300 4700,-900 1500,-600 2900,-1400 4000,-2200l0 -4700 -8500 0zm21200 -4600c0,-3700 600,-6800 1700,-9400 800,-1800 2000,-3500 3400,-5000 1400,-1500 3000,-2600 4700,-3300 2300,-1000 4900,-1400 7900,-1400 5400,0 9700,1600 12900,5000 3300,3300 4900,8000 4900,13900 0,6000 -1600,10600 -4800,13900 -3200,3400 -7500,5000 -12900,5000 -5400,0 -9800,-1600 -13000,-5000 -3200,-3300 -4800,-7900 -4800,-13700zm7600 -200c0,4100 1000,7200 2900,9400 1900,2100 4300,3200 7300,3200 2900,0 5400,-1100 7200,-3200 1900,-2100 2900,-5300 2900,-9500 0,-4200 -900,-7400 -2800,-9400 -1800,-2100 -4300,-3100 -7300,-3100 -3100,0 -5500,1000 -7400,3100 -1800,2100 -2800,5300 -2800,9500z"/>
  </g>
 </g>
</svg>
