<?xml version="1.0" encoding="UTF-8"?>
<!DOCTYPE svg PUBLIC "-//W3C//DTD SVG 1.1//EN" "http://www.w3.org/Graphics/SVG/1.1/DTD/svg11.dtd">
<!-- Creator: CorelDRAW -->
<svg xmlns="http://www.w3.org/2000/svg" xml:space="preserve" width="287px" height="150px" version="1.1" style="shape-rendering:geometricPrecision; text-rendering:geometricPrecision; image-rendering:optimizeQuality; fill-rule:evenodd; clip-rule:evenodd"
viewBox="0 0 486700 254200"
 xmlns:xlink="http://www.w3.org/1999/xlink"
 xmlns:xodm="http://www.corel.com/coreldraw/odm/2003">
 <defs>
  <style type="text/css">
   <![CDATA[
    .fil10 {fill:none}
    .fil9 {fill:black;fill-rule:nonzero}
    .fil12 {fill:#0F303F;fill-rule:nonzero}
    .fil13 {fill:#14B0BF;fill-rule:nonzero}
    .fil14 {fill:#234659;fill-rule:nonzero}
    .fil2 {fill:#292929;fill-rule:nonzero}
    .fil15 {fill:#3C2415;fill-rule:nonzero}
    .fil3 {fill:#594109;fill-rule:nonzero}
    .fil8 {fill:#5C5C5C;fill-rule:nonzero}
    .fil7 {fill:#707070;fill-rule:nonzero}
    .fil16 {fill:#734835;fill-rule:nonzero}
    .fil17 {fill:#82523B;fill-rule:nonzero}
    .fil11 {fill:#B3B3B3;fill-rule:nonzero}
    .fil5 {fill:#C12106;fill-rule:nonzero}
    .fil6 {fill:#E6E6E6;fill-rule:nonzero}
    .fil1 {fill:#FDA014;fill-rule:nonzero}
    .fil0 {fill:#FEBE00;fill-rule:nonzero}
    .fil4 {fill:white;fill-rule:nonzero}
   ]]>
  </style>
 </defs>
 <g id="Layer_x0020_1">
  <metadata id="CorelCorpID_0Corel-Layer"/>
  <g id="_2151232135200">
   <polygon class="fil0" points="272000,102100 259200,106400 257200,100500 270100,96200 "/>
   <path class="fil1" d="M292800 94900c0,6300 -8200,11500 -18400,11500 -10200,0 -14100,-7300 -14100,-13700 0,-6300 3900,-9400 14100,-9400 10200,0 18400,5200 18400,11600z"/>
   <polygon class="fil0" points="26500,102100 39400,106400 41300,100500 28500,96200 "/>
   <path class="fil1" d="M5700 94900c0,6300 8300,11500 18500,11500 10200,0 14000,-7300 14000,-13700 0,-6300 -3800,-9400 -14000,-9400 -10200,0 -18500,5200 -18500,11600z"/>
   <path class="fil2" d="M55000 234700l-8800 0c-8100,0 -14700,-6600 -14700,-14800l0 -38300 38300 0 0 38300c0,8200 -6600,14800 -14800,14800z"/>
   <path class="fil2" d="M243500 234700l8800 0c8100,0 14800,-6600 14800,-14800l0 -38300 -38300 0 0 38300c0,8200 6600,14800 14700,14800z"/>
   <path class="fil0" d="M20900 131400l0 35400c0,15700 3300,28400 18700,29400 0,100 49100,11000 109700,11000 60600,0 109700,-10900 109700,-11000 15400,-1000 18700,-13700 18700,-29400l0 -35400 -256800 0z"/>
   <path class="fil0" d="M37100 102800l26900 -49900c3800,-7200 13600,-13000 21700,-13000l127100 0c8200,0 17900,5800 21800,13000l26900 49900 -224400 0z"/>
   <polygon class="fil0" points="277700,131400 20900,131400 37100,102800 261500,102800 "/>
   <path class="fil3" d="M216200 194900c-44200,8100 -89600,8100 -133900,0 -8000,-1400 -13500,-7100 -12300,-12300 1100,-5200 8500,-7900 16500,-6400 41500,7400 84000,7400 125500,0 8000,-1500 15400,1200 16600,6400 1100,5200 -4400,10900 -12400,12300z"/>
   <path class="fil4" d="M249000 181300c0,3900 -3200,7100 -7100,7100 -4000,0 -7100,-3200 -7100,-7100 0,-4000 3100,-7100 7100,-7100 3900,0 7100,3100 7100,7100z"/>
   <path class="fil5" d="M266500 176600c0,2700 -2300,5000 -5000,5000 -2800,0 -5100,-2300 -5100,-5000 0,-2800 2300,-5000 5100,-5000 2700,0 5000,2200 5000,5000z"/>
   <path class="fil4" d="M49600 181300c0,3900 3100,7100 7100,7100 3900,0 7100,-3200 7100,-7100 0,-4000 -3200,-7100 -7100,-7100 -4000,0 -7100,3100 -7100,7100z"/>
   <path class="fil5" d="M32100 176600c0,2700 2200,5000 5000,5000 2800,0 5000,-2300 5000,-5000 0,-2800 -2200,-5000 -5000,-5000 -2800,0 -5000,2200 -5000,5000z"/>
   <path class="fil4" d="M72800 154000l-3000 -10900c-1600,-6100 -9500,-12200 -17500,-13800 0,0 -21400,-2500 -22600,2000l41400 22700 1700 0z"/>
   <path class="fil6" d="M29300 154000l41800 0 -41400 -22700c-200,1000 -400,2200 -400,3400l0 19300z"/>
   <path class="fil7" d="M40500 128600c-5200,0 -10200,600 -10800,2700 -200,1000 -400,2200 -400,3400l0 19300 43500 0 -3000 -10900c-1600,-6100 -9500,-12200 -17500,-13800 0,0 -6000,-700 -11800,-700zm0 1500c5600,0 11400,700 11500,700 7400,1400 14900,7200 16400,12700l2400 9000 -40000 0 0 -17800c0,-1000 100,-2000 400,-3100 0,0 900,-1500 9300,-1500z"/>
   <path class="fil4" d="M225800 154000l2900 -10900c1700,-6100 9500,-12200 17600,-13800 0,0 21300,-2500 22500,2000l-41300 22700 -1700 0z"/>
   <path class="fil6" d="M269300 154000l-41800 0 41300 -22700c300,1000 500,2200 500,3400l0 19300z"/>
   <path class="fil7" d="M258100 128600c-5800,0 -11800,700 -11800,700 -8100,1600 -15900,7700 -17600,13800l-2900 10900 43500 0 0 -19300c0,-1200 -200,-2400 -500,-3400 -500,-2100 -5600,-2700 -10700,-2700zm0 1500c8400,0 9300,1500 9300,1500 200,1100 400,2100 400,3100l0 17800 -40100 0 2400 -9000c1500,-5500 9000,-11300 16300,-12700 100,0 6000,-700 11700,-700z"/>
   <path class="fil8" d="M229400 55700c-2900,-5300 -10600,-9900 -16600,-9900l-127100 0c-6000,0 -13700,4600 -16500,9900l-22200 41200 204600 0 -22200 -41200z"/>
   <path class="fil1" d="M257400 102800l-216200 0c0,0 -16800,19100 -2200,18100 14600,-1100 36400,10500 36400,10500l147700 0c0,0 21900,-11600 36500,-10500 14600,1000 -2200,-18100 -2200,-18100z"/>
   <path class="fil3" d="M120100 159800c0,0 -8700,-1300 -19400,-2900 -10600,-1600 -28100,-25600 -28100,-25600l153300 0c0,0 -17400,24000 -28100,25600l-19300 2900c-16200,2400 -42300,2400 -58400,0z"/>
   <polygon class="fil4" points="85000,138300 211300,138300 211300,136500 85000,136500 "/>
   <polygon class="fil4" points="98000,143900 198300,143900 198300,142000 98000,142000 "/>
   <polygon class="fil4" points="111100,149400 185300,149400 185300,147600 111100,147600 "/>
   <polygon class="fil4" points="124100,154900 172200,154900 172200,153100 124100,153100 "/>
   <path class="fil1" d="M162300 19500l-13000 0 0 20400 34800 0 -6000 -11600c-2500,-4800 -9600,-8800 -15800,-8800z"/>
   <path class="fil1" d="M120400 28300l-6000 11600 34900 0 0 -20400 -13000 0c-6200,0 -13300,4000 -15900,8800z"/>
   <polygon class="fil9" points="133400,36200 140100,36200 140100,29400 133400,29400 "/>
   <polygon class="fil9" points="140100,29400 146900,29400 146900,22700 140100,22700 "/>
   <polygon class="fil9" points="146900,36200 153600,36200 153600,29400 146900,29400 "/>
   <polygon class="fil9" points="153600,29400 160400,29400 160400,22700 153600,22700 "/>
   <polygon class="fil9" points="160400,36200 167100,36200 167100,29400 160400,29400 "/>
  </g>
  <rect class="fil10" width="486700" height="254200"/>
  <g id="_2151232128288">
   <path class="fil11" d="M359100 114100l25200 0 0 -51800 -25200 0 0 51800zm29600 4500l-34000 0 0 -60800 34000 0 0 60800z"/>
   <path class="fil12" d="M327200 206400l0 -99400c0,-12300 10000,-22200 22200,-22200l44500 0c12300,0 22300,9900 22300,22200l0 99400c0,12300 -10000,22300 -22300,22300l-44500 0c-12200,0 -22200,-10000 -22200,-22300z"/>
   <path class="fil13" d="M332400 133500c0,0 0,-7700 0,-17100 0,-9500 10000,-17200 22300,-17200l34000 0c12300,0 22200,7700 22200,17200l0 17100 -78500 0z"/>
   <polygon class="fil14" points="332400,173900 410900,173900 410900,139600 332400,139600 "/>
   <path class="fil13" d="M388700 214200l-34000 0c-12300,0 -22300,-7700 -22300,-17100l0 -17200 78500 0c0,0 0,7700 0,17200 0,9400 -9900,17100 -22200,17100z"/>
   <polygon class="fil12" points="359000,64200 384500,64200 384500,55100 359000,55100 "/>
   <path class="fil0" d="M386300 143400l0 -3000c0,-3700 -3000,-6700 -6700,-6700l-15900 0c-3700,0 -6600,3000 -6600,6700l0 3000c0,3700 2900,6700 6600,6700l15900 0c3700,0 6700,-3000 6700,-6700zm-38100 8900l0 -20800c0,-3700 2900,-6700 6600,-6700l33700 0c3700,0 6700,3000 6700,6700l0 20800c0,3700 -3000,6700 -6700,6700l-33700 0c-3700,0 -6600,-3000 -6600,-6700z"/>
   <path class="fil15" d="M421400 230900l-99400 0c-12300,0 -22300,-10000 -22300,-22300l0 -44400c0,-12300 10000,-22300 22300,-22300l99400 0c12300,0 22200,10000 22200,22300l0 44400c0,12300 -9900,22300 -22200,22300z"/>
   <polygon class="fil16" points="331300,225300 412000,225300 412000,147400 331300,147400 "/>
   <polygon class="fil17" points="415000,225300 422900,225300 422900,147400 415000,147400 "/>
   <polygon class="fil17" points="320500,225300 328400,225300 328400,147400 320500,147400 "/>
  </g>
 </g>
</svg>
