<?xml version="1.0" encoding="UTF-8"?>
<!DOCTYPE svg PUBLIC "-//W3C//DTD SVG 1.1//EN" "http://www.w3.org/Graphics/SVG/1.1/DTD/svg11.dtd">
<!-- Creator: CorelDRAW -->
<svg xmlns="http://www.w3.org/2000/svg" xml:space="preserve" width="176px" height="150px" version="1.1" style="shape-rendering:geometricPrecision; text-rendering:geometricPrecision; image-rendering:optimizeQuality; fill-rule:evenodd; clip-rule:evenodd"
viewBox="0 0 276600 235500"
 xmlns:xlink="http://www.w3.org/1999/xlink"
 xmlns:xodm="http://www.corel.com/coreldraw/odm/2003">
 <defs>
  <style type="text/css">
   <![CDATA[
    .fil10 {fill:none}
    .fil9 {fill:black;fill-rule:nonzero}
    .fil2 {fill:#292929;fill-rule:nonzero}
    .fil3 {fill:#594109;fill-rule:nonzero}
    .fil8 {fill:#5C5C5C;fill-rule:nonzero}
    .fil7 {fill:#707070;fill-rule:nonzero}
    .fil5 {fill:#C12106;fill-rule:nonzero}
    .fil6 {fill:#E6E6E6;fill-rule:nonzero}
    .fil1 {fill:#FDA014;fill-rule:nonzero}
    .fil0 {fill:#FEBE00;fill-rule:nonzero}
    .fil4 {fill:white;fill-rule:nonzero}
   ]]>
  </style>
 </defs>
 <g id="Layer_x0020_1">
  <metadata id="CorelCorpID_0Corel-Layer"/>
  <g id="_2151237549744">
   <polygon class="fil0" points="248500,95300 236900,99200 235200,93900 246700,90100 "/>
   <path class="fil1" d="M267200 88800c0,5800 -7400,10400 -16600,10400 -9200,0 -12600,-6600 -12600,-12300 0,-5700 3400,-8400 12600,-8400 9200,0 16600,4600 16600,10300z"/>
   <polygon class="fil0" points="28100,95300 39700,99200 41500,93900 29900,90100 "/>
   <path class="fil1" d="M9500 88800c0,5800 7400,10400 16500,10400 9200,0 12700,-6600 12700,-12300 0,-5700 -3500,-8400 -12700,-8400 -9100,0 -16500,4600 -16500,10300z"/>
   <path class="fil2" d="M53700 214300l-7800 0c-7400,0 -13300,-5900 -13300,-13200l0 -34400 34400 0 0 34400c0,7300 -6000,13200 -13300,13200z"/>
   <path class="fil2" d="M222900 214300l7900 0c7300,0 13200,-5900 13200,-13200l0 -34400 -34300 0 0 34400c0,7300 5900,13200 13200,13200z"/>
   <path class="fil0" d="M23100 121600l0 31800c0,14100 2900,25500 16800,26400 0,100 44000,9800 98400,9800 54400,0 98500,-9700 98500,-9800 13800,-900 16800,-12300 16800,-26400l0 -31800 -230500 0z"/>
   <path class="fil0" d="M37600 96000l24200 -44900c3400,-6400 12200,-11600 19500,-11600l114000 0c7400,0 16100,5200 19600,11600l24100 44900 -201400 0z"/>
   <polygon class="fil0" points="253600,121600 23100,121600 37600,96000 239000,96000 "/>
   <path class="fil3" d="M198400 178700c-39700,7200 -80400,7200 -120200,0 -7200,-1400 -12100,-6400 -11100,-11100 1100,-4600 7700,-7100 14900,-5800 37200,6700 75400,6700 112600,0 7200,-1300 13900,1200 14900,5800 1000,4700 -3900,9700 -11100,11100z"/>
   <path class="fil4" d="M227800 166400c0,3500 -2800,6400 -6400,6400 -3500,0 -6400,-2900 -6400,-6400 0,-3500 2900,-6400 6400,-6400 3600,0 6400,2900 6400,6400z"/>
   <path class="fil5" d="M243500 162200c0,2400 -2000,4500 -4500,4500 -2500,0 -4500,-2100 -4500,-4500 0,-2500 2000,-4500 4500,-4500 2500,0 4500,2000 4500,4500z"/>
   <path class="fil4" d="M48800 166400c0,3500 2900,6400 6400,6400 3500,0 6400,-2900 6400,-6400 0,-3500 -2900,-6400 -6400,-6400 -3500,0 -6400,2900 -6400,6400z"/>
   <path class="fil5" d="M33100 162200c0,2400 2100,4500 4500,4500 2500,0 4500,-2100 4500,-4500 0,-2500 -2000,-4500 -4500,-4500 -2400,0 -4500,2000 -4500,4500z"/>
   <path class="fil4" d="M69700 141900l-2700 -9800c-1500,-5400 -8500,-10900 -15700,-12300 0,0 -19200,-2300 -20300,1700l37100 20400 1600 0z"/>
   <path class="fil6" d="M30600 141900l37500 0 -37100 -20400c-200,1000 -400,2000 -400,3100l0 17300z"/>
   <path class="fil7" d="M40700 119100c-4700,0 -9200,500 -9700,2400 -200,1000 -400,2000 -400,3100l0 17300 39100 0 -2700 -9800c-1500,-5400 -8500,-10900 -15700,-12300 0,0 -5400,-700 -10600,-700zm0 1400c5000,0 10300,600 10300,600 6700,1300 13400,6500 14700,11400l2200 8100 -35900 0 0 -16000c0,-900 100,-1800 300,-2800 0,0 800,-1300 8400,-1300z"/>
   <path class="fil4" d="M207000 141900l2600 -9800c1500,-5400 8500,-10900 15800,-12300 0,0 19200,-2300 20200,1700l-37100 20400 -1500 0z"/>
   <path class="fil6" d="M246000 141900l-37500 0 37100 -20400c200,1000 400,2000 400,3100l0 17300z"/>
   <path class="fil7" d="M236000 119100c-5300,0 -10600,700 -10600,700 -7300,1400 -14300,6900 -15800,12300l-2600 9800 39000 0 0 -17300c0,-1100 -200,-2100 -400,-3100 -500,-1900 -5000,-2400 -9600,-2400zm0 1400c7500,0 8300,1300 8300,1300 300,1000 400,1900 400,2800l0 16000 -36000 0 2200 -8100c1300,-4900 8100,-10100 14600,-11400 100,0 5400,-600 10500,-600z"/>
   <path class="fil8" d="M210200 53700c-2500,-4800 -9500,-8900 -14900,-8900l-114000 0c-5400,0 -12300,4100 -14900,8900l-19900 37000 183600 0 -19900 -37000z"/>
   <path class="fil1" d="M235300 96000l-194000 0c0,0 -15100,17100 -2000,16200 13100,-1000 32700,9400 32700,9400l132600 0c0,0 19600,-10400 32700,-9400 13100,900 -2000,-16200 -2000,-16200z"/>
   <path class="fil3" d="M112100 147100c0,0 -7800,-1200 -17300,-2600 -9600,-1400 -25300,-23000 -25300,-23000l137600 0c0,0 -15600,21600 -25200,23000l-17400 2600c-14500,2200 -37900,2200 -52400,0z"/>
   <polygon class="fil4" points="80600,127800 194000,127800 194000,126200 80600,126200 "/>
   <polygon class="fil4" points="92300,132800 182300,132800 182300,131200 92300,131200 "/>
   <polygon class="fil4" points="104000,137800 170600,137800 170600,136100 104000,136100 "/>
   <polygon class="fil4" points="115700,142800 158900,142800 158900,141100 115700,141100 "/>
   <path class="fil1" d="M150000 21200l-11700 0 0 18300 31300 0 -5400 -10400c-2300,-4300 -8600,-7900 -14200,-7900z"/>
   <path class="fil1" d="M112400 29100l-5400 10400 31300 0 0 -18300 -11600 0c-5600,0 -12000,3600 -14300,7900z"/>
   <polygon class="fil9" points="124100,36200 130100,36200 130100,30100 124100,30100 "/>
   <polygon class="fil9" points="130100,30100 136200,30100 136200,24100 130100,24100 "/>
   <polygon class="fil9" points="136200,36200 142200,36200 142200,30100 136200,30100 "/>
   <polygon class="fil9" points="142200,30100 148300,30100 148300,24100 142200,24100 "/>
   <polygon class="fil9" points="148300,36200 154300,36200 154300,30100 148300,30100 "/>
  </g>
  <rect class="fil10" width="276600" height="235500"/>
 </g>
</svg>
