<?xml version="1.0" encoding="UTF-8"?>
<!DOCTYPE svg PUBLIC "-//W3C//DTD SVG 1.1//EN" "http://www.w3.org/Graphics/SVG/1.1/DTD/svg11.dtd">
<!-- Creator: CorelDRAW -->
<svg xmlns="http://www.w3.org/2000/svg" xml:space="preserve" width="623px" height="150px" version="1.1" style="shape-rendering:geometricPrecision; text-rendering:geometricPrecision; image-rendering:optimizeQuality; fill-rule:evenodd; clip-rule:evenodd"
viewBox="0 0 9341200 2249100"
 xmlns:xlink="http://www.w3.org/1999/xlink"
 xmlns:xodm="http://www.corel.com/coreldraw/odm/2003">
 <defs>
  <style type="text/css">
   <![CDATA[
    .fil4 {fill:#293462}
    .fil5 {fill:#355764}
    .fil2 {fill:white}
    .fil0 {fill:#293462;fill-rule:nonzero}
    .fil3 {fill:#D61C4E;fill-rule:nonzero}
    .fil1 {fill:white;fill-rule:nonzero}
   ]]>
  </style>
 </defs>
 <g id="Layer_x0020_1">
  <metadata id="CorelCorpID_0Corel-Layer"/>
  <g id="_2721948972400">
   <path class="fil0" d="M2244600 1124800c0,-626400 -495700,-1124800 -1122300,-1124800 -626600,0 -1122300,498200 -1122300,1124900 0,626300 495900,1124200 1122300,1124200 626400,100 1122200,-497900 1122200,-1124200l100 -100z"/>
   <g>
    <path class="fil1" d="M1301800 635200c-53300,-36200 -124100,-54300 -212600,-54300 -116100,0 -216300,34900 -300500,104700 -84100,69800 -126200,167000 -126200,291700 0,121400 38900,217300 116700,287600 77700,70400 181100,105500 310000,105500 74600,0 134500,14900 179800,44800 45300,29800 67900,71900 67900,126200 0,52200 -25000,92200 -75100,119900 -50100,27700 -108700,41500 -175800,41500 -70300,-1000 -130200,-18300 -179800,-51900 -49500,-33600 -73200,-79600 -71100,-138200l-164600 0c-3200,108600 32700,194100 107900,256500 75100,62300 177600,93500 307600,93500 114000,0 212800,-28300 296500,-84800 83600,-56400 125400,-135300 125400,-236500 0,-124600 -69200,-210400 -207700,-257300 69200,-26600 121400,-66600 156600,-119900 35100,-53200 52700,-115600 52700,-186900 0,-88500 -31900,-170000 -95900,-244600l94300 -110200 -119800 -92700 -86300 105400zm-212600 99100c71400,0 131900,21900 181400,65600 49500,43600 74300,102800 74300,177400 0,70300 -24200,128100 -72700,173400 -48500,45200 -109500,67900 -183000,67900 -74600,0 -136600,-21300 -186200,-63900 -49500,-42700 -74300,-101800 -74300,-177400 0,-77800 25300,-137800 75900,-179800 50600,-42100 112200,-63200 184600,-63200z"/>
    <polygon class="fil2" points="1418000,601900 1146800,533500 1582100,386500 "/>
    <polygon class="fil2" points="1543300,842900 1395200,549200 1582100,386500 "/>
   </g>
  </g>
  <g id="_2721948972928">
   <path class="fil3" d="M3218000 786600c-54900,-37300 -128000,-56000 -219100,-56000 -119800,0 -223100,36000 -309800,107900 -86800,72000 -130200,172300 -130200,300800 0,125200 40100,224100 120300,296600 80200,72500 186700,108800 319700,108800 76900,0 138700,15400 185400,46100 46700,30800 70000,74200 70000,130200 0,53800 -25800,95000 -77500,123600 -51600,28600 -112000,42900 -181200,42900 -72500,-1200 -134300,-19000 -185400,-53600 -51100,-34600 -75600,-82100 -73400,-142600l-169700 0c-3300,112100 33800,200300 111200,264500 77500,64300 183200,96400 317300,96400 117500,0 219400,-29100 305700,-87300 86200,-58200 129300,-139500 129300,-243900 0,-128500 -71400,-217000 -214200,-265300 71400,-27500 125200,-68700 161500,-123600 36200,-54900 54400,-119200 54400,-192800 0,-91200 -33000,-175200 -98900,-252100l97200 -113700 -123600 -95600 -89000 108700zm-219100 102200c73600,0 135900,22500 187000,67600 51100,45000 76600,106000 76600,182900 0,72500 -25000,132100 -75000,178800 -49900,46700 -112800,70000 -188600,70000 -76900,0 -140900,-21900 -192000,-65900 -51100,-43900 -76600,-104900 -76600,-182900 0,-80200 26000,-142000 78200,-185400 52200,-43400 115700,-65100 190400,-65100z"/>
   <path id="_1" class="fil3" d="M3960300 738800c-124100,0 -224900,40100 -302400,120300 -77400,80200 -116100,181300 -116100,303300 0,121900 38400,222700 115300,302400 76900,79600 178000,119400 303200,119400 126400,0 228300,-39800 305700,-119400 77500,-79700 116200,-180500 116200,-302400 0,-120900 -39300,-221700 -117800,-302400 -78600,-80800 -179900,-121200 -304100,-121200zm0 156600c72500,0 132400,26100 179700,78300 47200,52200 70800,115100 70800,188700 0,74700 -22800,137300 -68400,187800 -45600,50600 -106300,75800 -182100,75800 -75800,0 -136200,-25200 -181200,-75800 -45100,-50500 -67600,-113100 -67600,-187800 0,-74700 22800,-137900 68400,-189600 45600,-51600 105700,-77400 180400,-77400z"/>
   <path id="_2" class="fil3" d="M5106400 1348600c-49500,50500 -113700,75800 -192800,75800 -73600,0 -135200,-23100 -184600,-69200 -49400,-46200 -74200,-110400 -74200,-192800 0,-79100 24800,-143100 74200,-192000 49400,-48900 111500,-73400 186200,-73400 72500,0 133500,24200 182900,72600l108800 -113800c-81300,-80100 -179100,-120200 -293300,-120200 -123100,0 -225200,37300 -306500,112000 -81300,74700 -122000,179600 -122000,314800 0,135100 40700,240000 122000,314700 81300,74700 183400,112100 306500,112100 119700,0 222400,-42300 308100,-126900l-115300 -113700z"/>
   <path id="_3" class="fil3" d="M5973900 883900c-25300,-45100 -63200,-80800 -113700,-107100 -50500,-26400 -104900,-39600 -163100,-39600 -120900,0 -221100,37600 -300800,112900 -79600,75200 -119500,178800 -119500,310600 0,135100 39000,240600 117000,316400 78000,75800 178000,113200 300000,112100 54900,0 109000,-13200 162300,-39600 53300,-26300 92500,-64200 117800,-113700l8300 131900 161500 0 0 -812500 -164800 0 -5000 128600zm-263600 8200c48300,0 91400,9900 129300,29700 37900,19700 66500,45600 85700,77400 19200,31900 33500,67000 42800,105500 9400,38400 9400,76600 0,114500 -9300,37900 -23600,72800 -42800,104700 -19200,31800 -47800,57600 -85700,77400 -37900,19800 -81000,29700 -129300,29700 -74800,0 -137400,-24700 -187900,-74200 -50600,-49400 -75800,-114800 -75800,-196100 0,-81300 25200,-146400 75800,-195300 50500,-48900 113100,-73300 187900,-73300z"/>
   <path id="_4" class="fil3" d="M6787100 897000c73600,0 134800,23700 183700,70900 48900,47200 73400,111500 73400,192800 0,79100 -24800,143100 -74200,192000 -49400,48900 -110400,73300 -182900,73300 -73600,0 -135400,-24700 -185400,-74100 -50000,-49500 -75000,-113200 -75000,-191200 0,-76900 25300,-140100 75800,-189500 50500,-49400 112100,-74200 184600,-74200zm-440000 -481100l0 1151900 159800 0 9900 -128600c59300,96700 153300,145000 281800,145000 120900,0 220300,-37900 298300,-113700 78000,-75800 117000,-179000 117000,-309800 0,-134000 -38500,-238100 -115400,-312300 -76900,-74100 -175700,-111200 -296600,-111200 -53800,0 -108500,12900 -164000,38700 -55400,25800 -95800,61300 -121100,106300l0 -466300 -169700 0z"/>
   <path id="_5" class="fil3" d="M8392900 842700c-81300,-72500 -185700,-108800 -313100,-108800 -87900,0 -166200,20600 -234800,61800 -68700,41200 -103000,103000 -103000,185400 1100,141700 111500,223000 331200,243900 63700,6600 111200,18100 142500,34600 31300,16500 46400,42300 45300,77400 -1000,35200 -18600,61600 -52700,79100 -34000,17600 -74100,26400 -120300,26400 -119700,-2200 -214800,-42300 -285100,-120300l-89000 120300c89000,100000 212600,150000 370800,150000 104400,0 187900,-23600 250500,-70900 62600,-47200 94500,-109300 95600,-186200 0,-49400 -10200,-91200 -30500,-125200 -20300,-34100 -49400,-59600 -87300,-76700 -37900,-17000 -73600,-29100 -107200,-36200 -33500,-7200 -73300,-12900 -119400,-17300 -116500,-11000 -175300,-45600 -176400,-103800 0,-31900 15700,-56400 47000,-73400 31300,-17000 73300,-25000 126100,-23900 87900,0 159300,25300 214200,75800l95600 -112000z"/>
   <path id="_6" class="fil3" d="M8573200 414200l0 1153600 169800 0 0 -423600c0,-68100 21100,-125500 63400,-172200 42300,-46700 95900,-70000 160700,-70000 63700,0 113700,19500 150000,58500 36200,39000 54400,95900 54400,170500l0 436800 169700 0 0 -438400c0,-119700 -28000,-213900 -84100,-282600 -56000,-68700 -139500,-103000 -250500,-103000 -113100,0 -201000,43900 -263600,131800l0 -461400 -169800 0z"/>
   <g>
    <path class="fil4" d="M7399500 867300l48900 0c54400,2700 136100,-34300 178100,-65900 122500,-92400 173100,-270100 101700,-411700 -20600,-40600 -36200,-64600 -68600,-97100 -24700,-24700 -41000,-35800 -69800,-52400 -45900,-26500 -95100,-40600 -145200,-43300l-36300 0c-40100,2100 -80500,11500 -119800,27500 -154100,62700 -248000,260200 -176500,433800 8500,20500 16400,34800 27600,53800 28600,48200 80800,94700 130400,119500 28500,14200 88000,37800 129500,35800z"/>
    <path class="fil5" d="M7448400 867300l-48900 0 0 649500c0,29200 -6800,66600 19500,70600l9900 0c25800,-3900 19500,-39300 19500,-67900l0 -652200z"/>
    <path class="fil5" d="M7240400 345800c-90800,20800 -61800,159400 30700,140200 35000,-7200 65300,-41500 55500,-86500 -7700,-35200 -42700,-63600 -86200,-53700z"/>
   </g>
  </g>
 </g>
</svg>
