<?xml version="1.0" encoding="UTF-8"?>
<!DOCTYPE svg PUBLIC "-//W3C//DTD SVG 1.1//EN" "http://www.w3.org/Graphics/SVG/1.1/DTD/svg11.dtd">
<!-- Creator: CorelDRAW -->
<svg xmlns="http://www.w3.org/2000/svg" xml:space="preserve" width="148px" height="148px" version="1.1" style="shape-rendering:geometricPrecision; text-rendering:geometricPrecision; image-rendering:optimizeQuality; fill-rule:evenodd; clip-rule:evenodd"
viewBox="0 0 802400 802400"
 xmlns:xlink="http://www.w3.org/1999/xlink"
 xmlns:xodm="http://www.corel.com/coreldraw/odm/2003">
 <defs>
  <style type="text/css">
   <![CDATA[
    .fil0 {fill:none}
    .fil5 {fill:#293462}
    .fil6 {fill:#355764}
    .fil3 {fill:white}
    .fil1 {fill:#293462;fill-rule:nonzero}
    .fil4 {fill:#D61C4E;fill-rule:nonzero}
    .fil2 {fill:white;fill-rule:nonzero}
   ]]>
  </style>
 </defs>
 <g id="Layer_x0020_1">
  <metadata id="CorelCorpID_0Corel-Layer"/>
  <rect class="fil0" width="802400" height="802400"/>
  <g id="_2068617861840">
   <path class="fil1" d="M689900 296800c0,-161100 -127500,-289300 -288700,-289300 -161200,0 -288700,128200 -288700,289400 0,161100 127600,289200 288700,289200 161200,0 288700,-128100 288700,-289200l0 -100z"/>
   <g>
    <path class="fil2" d="M447400 170900c-13700,-9300 -32000,-14000 -54700,-14000 -29900,0 -55600,9000 -77300,27000 -21600,17900 -32500,42900 -32500,75000 0,31200 10000,55900 30000,74000 20000,18100 46600,27100 79800,27100 19200,0 34600,3900 46300,11500 11600,7700 17400,18500 17400,32500 0,13400 -6400,23700 -19300,30900 -12900,7100 -28000,10600 -45200,10600 -18100,-200 -33500,-4700 -46300,-13300 -12700,-8700 -18800,-20500 -18300,-35600l-42300 0c-800,28000 8400,50000 27700,66000 19400,16000 45700,24100 79200,24100 29300,0 54700,-7300 76200,-21800 21600,-14600 32300,-34800 32300,-60900 0,-32100 -17800,-54100 -53400,-66200 17800,-6800 31200,-17100 40300,-30800 9000,-13700 13500,-29800 13500,-48100 0,-22800 -8200,-43700 -24600,-62900l24200 -28400 -30800 -23800 -22200 27100zm-54700 25500c18400,0 33900,5600 46700,16800 12700,11300 19100,26500 19100,45700 0,18100 -6300,32900 -18700,44600 -12500,11600 -28200,17500 -47100,17500 -19200,0 -35200,-5500 -47900,-16500 -12700,-10900 -19100,-26200 -19100,-45600 0,-20000 6500,-35400 19500,-46300 13000,-10800 28900,-16200 47500,-16200z"/>
    <polygon class="fil3" points="477300,162300 407500,144700 519500,106900 "/>
    <polygon class="fil3" points="509500,224300 471400,148800 519500,106900 "/>
   </g>
   <g>
    <path class="fil4" d="M123700 666300c-5600,-3700 -13000,-5600 -22300,-5600 -12200,0 -22700,3600 -31500,10900 -8800,7300 -13200,17500 -13200,30600 0,12700 4100,22700 12200,30100 8200,7400 19000,11100 32500,11100 7800,0 14100,1500 18800,4700 4800,3100 7100,7500 7100,13200 0,5400 -2600,9600 -7800,12500 -5300,2900 -11400,4400 -18400,4400 -7400,-100 -13700,-1900 -18900,-5500 -5200,-3500 -7600,-8300 -7400,-14400l-17300 0c-300,11300 3500,20300 11300,26800 7900,6600 18600,9800 32300,9800 11900,0 22300,-2900 31000,-8800 8800,-6000 13200,-14200 13200,-24800 0,-13100 -7300,-22100 -21800,-27000 7200,-2800 12700,-7000 16400,-12500 3700,-5600 5500,-12100 5500,-19600 0,-9300 -3300,-17800 -10000,-25600l9900 -11600 -12600 -9700 -9000 11000zm-22300 10400c7500,0 13800,2300 19000,6900 5200,4600 7800,10800 7800,18600 0,7300 -2600,13400 -7600,18100 -5100,4800 -11500,7200 -19200,7200 -7800,0 -14300,-2300 -19500,-6700 -5200,-4500 -7800,-10700 -7800,-18600 0,-8200 2700,-14400 8000,-18900 5300,-4400 11700,-6600 19300,-6600z"/>
    <path id="_1" class="fil4" d="M199100 661500c-12600,0 -22900,4100 -30700,12200 -7900,8200 -11900,18400 -11900,30800 0,12400 4000,22700 11800,30700 7800,8100 18000,12200 30800,12200 12800,0 23200,-4100 31000,-12200 7900,-8000 11800,-18300 11800,-30700 0,-12300 -4000,-22500 -11900,-30700 -8000,-8200 -18300,-12300 -30900,-12300zm0 15900c7300,0 13400,2600 18200,8000 4800,5300 7200,11600 7200,19100 0,7600 -2300,14000 -6900,19100 -4700,5100 -10800,7700 -18500,7700 -7700,0 -13900,-2600 -18400,-7700 -4600,-5100 -6900,-11500 -6900,-19100 0,-7600 2300,-14000 6900,-19200 4700,-5300 10800,-7900 18400,-7900z"/>
    <path id="_2" class="fil4" d="M315500 723400c-5000,5200 -11600,7700 -19600,7700 -7500,0 -13700,-2300 -18700,-7000 -5100,-4700 -7600,-11200 -7600,-19600 0,-8000 2500,-14500 7600,-19500 5000,-5000 11300,-7400 18900,-7400 7300,0 13500,2400 18600,7300l11000 -11500c-8200,-8200 -18200,-12200 -29800,-12200 -12500,0 -22900,3800 -31100,11300 -8300,7600 -12400,18300 -12400,32000 0,13700 4100,24400 12400,32000 8200,7600 18600,11400 31100,11400 12200,0 22600,-4300 31300,-12900l-11700 -11600z"/>
    <path id="_3" class="fil4" d="M403600 676200c-2500,-4500 -6400,-8200 -11500,-10900 -5100,-2600 -10700,-4000 -16600,-4000 -12300,0 -22500,3900 -30500,11500 -8100,7600 -12200,18200 -12200,31600 0,13700 4000,24400 11900,32100 7900,7700 18100,11500 30500,11400 5600,0 11100,-1400 16500,-4000 5400,-2700 9400,-6600 11900,-11600l900 13400 16400 0 0 -82500 -16800 0 -500 13000zm-26700 900c4900,0 9200,1000 13100,3000 3800,2000 6700,4600 8700,7800 2000,3300 3400,6900 4400,10800 900,3900 900,7700 0,11600 -1000,3800 -2400,7400 -4400,10600 -2000,3300 -4900,5900 -8700,7900 -3900,2000 -8200,3000 -13100,3000 -7600,0 -14000,-2500 -19100,-7500 -5200,-5000 -7700,-11700 -7700,-19900 0,-8300 2500,-14900 7700,-19900 5100,-5000 11500,-7400 19100,-7400z"/>
    <path id="_4" class="fil4" d="M486200 677600c7500,0 13700,2400 18700,7200 5000,4800 7500,11300 7500,19600 0,8000 -2500,14500 -7600,19500 -5000,4900 -11200,7400 -18600,7400 -7400,0 -13700,-2500 -18800,-7500 -5100,-5000 -7600,-11500 -7600,-19400 0,-7900 2600,-14300 7700,-19300 5100,-5000 11400,-7500 18700,-7500zm-44700 -48900l0 117000 16300 0 1000 -13100c6000,9900 15600,14800 28600,14800 12300,0 22400,-3900 30300,-11600 7900,-7700 11900,-18200 11900,-31400 0,-13700 -3900,-24200 -11700,-31800 -7800,-7500 -17900,-11300 -30100,-11300 -5500,0 -11100,1300 -16700,4000 -5600,2600 -9700,6200 -12300,10800l0 -47400 -17300 0z"/>
    <path id="_5" class="fil4" d="M649400 672000c-8300,-7300 -18900,-11000 -31800,-11000 -9000,0 -16900,2100 -23900,6300 -7000,4200 -10400,10400 -10400,18800 100,14400 11300,22700 33600,24800 6500,700 11300,1800 14500,3500 3200,1700 4700,4300 4600,7900 -100,3500 -1900,6200 -5400,8000 -3400,1800 -7500,2700 -12200,2700 -12200,-200 -21800,-4300 -28900,-12200l-9100 12200c9100,10100 21600,15200 37700,15200 10600,0 19100,-2400 25400,-7200 6400,-4800 9600,-11100 9700,-18900 0,-5000 -1000,-9300 -3100,-12700 -2000,-3500 -5000,-6100 -8800,-7800 -3900,-1700 -7500,-3000 -10900,-3700 -3400,-700 -7500,-1300 -12200,-1700 -11800,-1200 -17800,-4700 -17900,-10600 0,-3200 1600,-5700 4800,-7400 3200,-1800 7500,-2600 12800,-2500 8900,0 16200,2600 21800,7700l9700 -11400z"/>
    <path id="_6" class="fil4" d="M667700 628500l0 117200 17300 0 0 -43000c0,-6900 2100,-12800 6400,-17500 4300,-4800 9700,-7100 16300,-7100 6500,0 11600,1900 15300,5900 3600,4000 5500,9800 5500,17300l0 44400 17200 0 0 -44500c0,-12200 -2800,-21800 -8500,-28700 -5700,-7000 -14200,-10500 -25500,-10500 -11500,0 -20400,4500 -26700,13400l0 -46900 -17300 0z"/>
    <g>
     <path class="fil5" d="M548500 674500l4900 0c5600,300 13900,-3400 18100,-6700 12500,-9300 17600,-27400 10400,-41800 -2100,-4100 -3700,-6500 -7000,-9800 -2500,-2600 -4200,-3700 -7100,-5400 -4700,-2700 -9700,-4100 -14700,-4400l-3700 0c-4100,300 -8200,1200 -12200,2800 -15700,6400 -25200,26500 -17900,44100 800,2100 1600,3500 2800,5500 2900,4900 8200,9600 13200,12100 2900,1500 9000,3900 13200,3600z"/>
     <path class="fil6" d="M553400 674500l-4900 0 0 66000c0,3000 -700,6800 2000,7200l1000 0c2600,-400 1900,-4000 1900,-6900l0 -66300z"/>
     <path class="fil6" d="M532300 621600c-9200,2100 -6300,16200 3100,14200 3600,-700 6700,-4200 5700,-8800 -800,-3600 -4400,-6400 -8800,-5400z"/>
    </g>
   </g>
  </g>
 </g>
</svg>
