<?xml version="1.0" encoding="UTF-8"?>
<!DOCTYPE svg PUBLIC "-//W3C//DTD SVG 1.1//EN" "http://www.w3.org/Graphics/SVG/1.1/DTD/svg11.dtd">
<!-- Creator: CorelDRAW -->
<svg xmlns="http://www.w3.org/2000/svg" xml:space="preserve" width="148px" height="148px" version="1.1" style="shape-rendering:geometricPrecision; text-rendering:geometricPrecision; image-rendering:optimizeQuality; fill-rule:evenodd; clip-rule:evenodd"
viewBox="0 0 501200 502200"
 xmlns:xlink="http://www.w3.org/1999/xlink"
 xmlns:xodm="http://www.corel.com/coreldraw/odm/2003">
 <defs>
  <style type="text/css">
   <![CDATA[
    .fil2 {fill:white}
    .fil0 {fill:#293462;fill-rule:nonzero}
    .fil1 {fill:white;fill-rule:nonzero}
   ]]>
  </style>
 </defs>
 <g id="Layer_x0020_1">
  <metadata id="CorelCorpID_0Corel-Layer"/>
  <path class="fil0" d="M501200 251200c0,-139900 -110700,-251200 -250600,-251200 -139900,0 -250600,111300 -250600,251200 0,139800 110700,251000 250600,251000 139900,100 250600,-111200 250600,-251000l0 0z"/>
  <g id="_1730148295920">
   <path class="fil1" d="M290700 141800c-11900,-8000 -27700,-12100 -47500,-12100 -25900,0 -48300,7800 -67100,23400 -18800,15600 -28200,37300 -28200,65100 0,27100 8700,48600 26100,64300 17400,15700 40400,23500 69200,23500 16700,0 30100,3300 40200,10000 10100,6700 15100,16100 15100,28200 0,11700 -5600,20600 -16700,26800 -11200,6100 -24300,9200 -39300,9200 -15700,-200 -29100,-4100 -40100,-11600 -11100,-7500 -16400,-17700 -15900,-30800l-36800 0c-700,24200 7300,43300 24100,57300 16800,13900 39700,20800 68700,20800 25500,0 47500,-6300 66200,-18900 18700,-12600 28000,-30200 28000,-52800 0,-27800 -15400,-47000 -46400,-57500 15500,-5900 27200,-14800 35000,-26700 7900,-11900 11800,-25800 11800,-41800 0,-19700 -7200,-37900 -21400,-54600l21000 -24600 -26700 -20700 -19300 23500zm-47500 22200c16000,0 29500,4800 40500,14600 11100,9800 16600,23000 16600,39600 0,15700 -5400,28600 -16200,38700 -10800,10200 -24500,15200 -40900,15200 -16600,0 -30500,-4800 -41600,-14300 -11000,-9500 -16500,-22700 -16500,-39600 0,-17400 5600,-30700 16900,-40100 11300,-9400 25000,-14100 41200,-14100z"/>
   <polygon class="fil2" points="316600,134400 256100,119100 353300,86300 "/>
   <polygon class="fil2" points="344600,188200 311500,122600 353300,86300 "/>
  </g>
 </g>
</svg>
